# xmcd
#
# Track frame offsets:
# 150
# 11617
# 20455
# 33635
# 40662
# 50270
# 66735
# 78690
# 89285
# 99182
# 111097
# 121797
#
# Disc length: 1745 seconds
#
#
# Revision: 0
# Processed by: cddbd v1.4PL0 Copyright (c) Steve Scherf et al.
# Submitted via: FreeRIP 2.51 
#
DISCID=9306cf0c
DTITLE=Bobby All - A Log Cabin Christmas, Vol. II
DYEAR=1998
DGENRE=Christmas
TTITLE0=Silent Night
TTITLE1=While Shepherds Watched Their Flocks
TTITLE2=Silver Bells
TTITLE3=Joy To The World
TTITLE4=Jingle Bells
TTITLE5=O Holy Night
TTITLE6=Beautiful Star Of Bethlehem
TTITLE7=Winter Wonderland
TTITLE8=Away In A Manger
TTITLE9=Let It Snow
TTITLE10=We Three Kings
TTITLE11=What Child Is This?
EXTD=
EXTT0=
EXTT1=
EXTT2=
EXTT3=
EXTT4=
EXTT5=
EXTT6=
EXTT7=
EXTT8=
EXTT9=
EXTT10=
EXTT11=
PLAYORDER=
